<svg xmlns="http://www.w3.org/2000/svg" width="228" height="60">
    <g fill="#0033A1" fill-rule="evenodd">
        <path d="M90.254 36.263l-.394 2.864H79.825V24.611h10.167l-.372 2.864h-6.21v2.951h6.013l-.219 2.864h-5.793v2.973zM109.535 31.344v7.784h-3.63v-7.15c0-.983-.546-1.508-1.574-1.508a2.47 2.47 0 00-1.727.7v7.958h-3.63v-7.15c0-.983-.545-1.508-1.552-1.508-.7 0-1.355.262-1.902.852v7.806h-3.628V27.933h3.082l.35 1.793c.59-1.464 1.88-2.142 3.345-2.142 1.815 0 3.039.765 3.585 2.011.722-1.268 1.837-2.011 3.345-2.011 2.536 0 3.936 1.486 3.936 3.76M111.433 39.127h3.63V27.934h-3.63v11.193zm0-12.483h3.63v-2.908h-3.63v2.908zM117.051 39.127h3.629V23.736h-3.629zM130.145 27.497v3.126h6.384l-.394 2.864h-5.99v5.64h-3.586V24.612h10.472l-.393 2.886zM145.578 28.13l-.416 2.908c-.502-.109-.918-.197-1.377-.197-1.071 0-1.662.438-2.011 1.268v7.018h-3.63V27.934h3.06l.394 2.055c.482-1.574 1.443-2.23 2.471-2.23.678 0 1.137.131 1.509.372M149.25 32.569h4.197c-.044-1.487-.656-2.252-2.034-2.252-1.29 0-1.989.722-2.164 2.252m7.5 2.164h-7.412c.35 1.487 1.443 1.924 3.17 1.924 1.18 0 2.58-.197 3.913-.765l-.35 2.755c-1.136.568-2.601.83-3.979.83-4 0-6.34-1.924-6.34-5.903 0-3.672 1.837-5.99 5.75-5.99 3.476 0 5.334 2.23 5.334 5.597 0 .437-.043 1.137-.087 1.552M168.88 27.934L164.64 39.39c-1.29 3.498-2.886 4.285-5.029 4.285-.547 0-1.224-.11-1.858-.262l.416-2.624c.393.11.786.175 1.18.175.962 0 1.596-.197 1.923-1.093l.154-.525-4.417-11.412h3.564l2.295 6.887.198.634 2.23-7.521h3.585zM27.413 9.104v7.397h-4.05v4.05h-12.61c3.16-6.259 9.36-10.722 16.66-11.447zm4.2 0c7.3.725 13.5 5.188 16.66 11.447h-12.61v-4.05h-4.05V9.104zm-4.2 15.497v-4.05h4.2v4.05h27.412a30.129 30.129 0 00-3.007-8.663l-2.765 3.205a26.17 26.17 0 00-6.084-8.363l.002-.001 3.906-1.64a30.092 30.092 0 00-3.93-3.409 30.144 30.144 0 00-4.457-2.685l-.352 4.22A25.923 25.923 0 0032.5 4.072L34.697.448a30.188 30.188 0 00-10.368 0l2.196 3.624a25.926 25.926 0 00-9.837 3.193l-.353-4.22a30.217 30.217 0 00-8.387 6.094l3.907 1.64h.002a26.19 26.19 0 00-6.085 8.364l-2.765-3.205A30.25 30.25 0 000 24.601H27.413zM7.241 33.816l-.156 2.334H.065v-9.503h7.147l-.155 2.347H2.995v1.294h3.973l-.156 2.234H2.995v1.294zM19.25 31.241v4.908h-2.874v-4.495c0-.654-.186-.882-.629-.882-.228 0-.414.1-.543.214v5.163H12.33v-4.481c0-.711-.156-.881-.6-.881-.214 0-.429.141-.572.283v5.08H8.285v-7.327h2.745l.1 1.053c.343-.769.885-1.267 1.786-1.267 1.172 0 1.887.47 2.174 1.338.371-.981 1.072-1.338 1.973-1.338 1.458 0 2.187.954 2.187 2.632M20.436 27.814h2.873V25.65h-2.873zM20.436 36.15h2.873v-7.327h-2.873zM24.54 36.15h2.873v-10.5h-2.874zM47.448 31.682h1.958c-.071-.938-.515-1.152-1.014-1.152-.515 0-.844.27-.944 1.152zm4.417 1.508h-4.303c.1.882.672 1.124 1.987 1.124.686 0 1.401-.1 2.087-.327l-.21 1.878c-.6.255-1.448.455-2.491.455-3.146 0-4.247-1.622-4.247-3.855 0-2.32 1.203-3.813 3.69-3.813 2.788 0 3.545 1.92 3.545 3.685 0 .284-.03.597-.058.853zm-7.562-4.352l-.286 2.673a8.334 8.334 0 00-.6-.028c-.558 0-1.073.1-1.43.341v4.325h-3.001l.127-7.326h2.745l.129 1.735c.3-1.337.915-1.849 1.601-1.849.172 0 .458.028.715.129zm-9.76.127v1.323h3.554l-.114 2.262h-3.44v3.6h-2.93v-9.503h6.714l-.113 2.318h-3.67zM59.494 28.823l-2.392 6.304c-1.003 2.613-1.52 3.207-3.439 3.207-.244 0-.831-.083-1.204-.207l.167-1.821c.315.083.602.124.945.124.43 0 .731-.083.86-.457l-2.586-7.15h2.85l1.018 4.092.988-4.092h2.793zM39.042 43.13a.825.825 0 11-.969-1.334.825.825 0 01.97 1.334zm-4.521 2.29a.825.825 0 11-.512-1.568.825.825 0 01.512 1.568zm-5.008.782a.825.825 0 11-.001-1.65.825.825 0 01.001 1.65zm-3.965-1.335a.825.825 0 11-1.569-.508.825.825 0 011.569.508zm-4.398-1.963a.825.825 0 11-1.335-.97.825.825 0 011.335.97zm16.123-3.753a11.95 11.95 0 01-7.76 2.85c-2.96 0-5.668-1.073-7.76-2.85h-7.827c3.141 5.34 8.944 8.926 15.587 8.926 6.643 0 12.445-3.586 15.586-8.926h-7.826zM28.676 60l-1.498-.08.079-1.497 1.498.079zM25.514 59.744l-1.482-.237.238-1.481 1.48.237zM22.396 59.155l-1.448-.392.392-1.447 1.448.391zM19.358 58.241l-1.399-.542.543-1.4 1.398.544zM16.433 57.012l-1.333-.688.688-1.333 1.333.687zM13.655 55.48l-1.253-.825.824-1.252 1.253.823zM11.054 53.663l-1.16-.951.953-1.16 1.158.952zM8.659 51.582l-1.052-1.069 1.068-1.052 1.053 1.07zM6.497 49.26l-.933-1.174 1.174-.934.933 1.175zM4.593 46.723l-.804-1.266 1.265-.804.805 1.265zM2.966 43.998L2.3 42.655l1.344-.667.666 1.344zM1.637 41.118l-.52-1.407 1.407-.52.52 1.406zM31.847 59.92L30.35 60l-.079-1.498 1.498-.08zM34.993 59.507l-1.481.237-.237-1.48 1.481-.238zM38.077 58.763l-1.448.393-.391-1.449 1.447-.391zM41.066 57.699l-1.399.542-.543-1.398 1.399-.543zM43.925 56.324l-1.333.688-.687-1.334 1.333-.687zM46.624 54.655l-1.254.825-.824-1.254 1.253-.824zM49.13 52.711l-1.158.952-.953-1.159 1.16-.952zM51.419 50.513l-1.052 1.07-1.07-1.053 1.052-1.07zM53.462 48.086l-.934 1.174-1.174-.933.934-1.174zM55.237 45.457l-.804 1.266-1.266-.804.804-1.267zM56.725 42.655l-.666 1.344-1.344-.667.666-1.343zM57.909 39.711l-.521 1.407-1.406-.52.52-1.408z"></path>
        <path d="M54.696 41.684l.594-1.377-1.247-.539c.08-.205.164-.409.24-.616h-1.929c-3.63 9.055-12.489 15.45-22.841 15.45-10.353 0-19.21-6.395-22.842-15.45H4.742c.076.207.159.411.241.616l-1.248.54.595 1.376 1.246-.537c.182.39.376.775.577 1.155l-1.185.669.736 1.306 1.183-.666c.223.37.457.73.696 1.088l-1.11.79.871 1.222 1.11-.79c.26.343.528.68.804 1.011l-1.02.903.994 1.124 1.023-.906c.294.314.594.623.903.922l-.918 1.007 1.106 1.012.922-1.008c.326.281.657.555.996.82l-.807 1.099 1.207.889.808-1.097c.353.245.713.481 1.079.71l-.687 1.176 1.295.756.685-1.17c.377.205.761.4 1.15.59l-.558 1.238 1.367.616.557-1.236c.397.165.798.321 1.205.467l-.423 1.29 1.425.467.424-1.29c.412.122.827.236 1.246.34l-.284 1.325 1.467.315.285-1.33c.422.077.847.145 1.276.202l-.144 1.355 1.492.159.143-1.354c.428.033.858.052 1.29.064v1.365h1.5v-1.365c.434-.012.864-.03 1.29-.064l.144 1.354 1.493-.16-.144-1.354c.428-.057.853-.125 1.275-.203l.286 1.33 1.467-.314-.285-1.326c.42-.103.835-.217 1.247-.34l.423 1.29 1.425-.467-.422-1.289c.406-.146.808-.302 1.205-.467l.556 1.236 1.368-.616-.558-1.239c.389-.188.773-.384 1.15-.59l.685 1.171 1.295-.756-.688-1.176c.366-.229.726-.465 1.08-.71l.807 1.097 1.208-.89-.809-1.097c.34-.266.672-.54.998-.821l.92 1.008 1.108-1.012-.92-1.007c.31-.299.61-.608.905-.922l1.022.906.995-1.124-1.02-.903c.276-.33.543-.668.803-1.011l1.11.79.87-1.222-1.11-.79c.24-.357.474-.719.697-1.088l1.184.666.736-1.306-1.186-.669c.201-.38.395-.764.577-1.155l1.247.537z"></path>
        <path d="M29.513 49.202c-7.291 0-13.633-4.064-16.885-10.05H7.887c3.566 8.418 11.906 14.325 21.626 14.325S47.57 47.57 51.138 39.152h-4.741c-3.252 5.986-9.594 10.05-16.884 10.05M178.3 37.488c3.629 0 5.356-2.143 5.356-5.685 0-3.782-1.946-5.553-5.488-5.553h-2.755v11.238h2.886zm-4.744-12.877h4.7c4.657 0 7.324 2.733 7.324 7.192 0 4.286-2.536 7.325-7.127 7.325h-4.897V24.61zM187.523 39.127h1.859V27.934h-1.859v11.193zm0-13.38h1.859v-2.011h-1.859v2.012zM199.263 36.57v-6.078c-.7-.787-1.618-1.181-2.864-1.181-2.23 0-3.346 1.662-3.346 4.22 0 2.557 1.335 4.22 3.39 4.22 1.18 0 2.12-.373 2.82-1.181zm1.858-8.636v10.603c0 2.82-1.596 5.05-5.422 5.05-1.443 0-2.449-.174-3.542-.699l.219-1.662c1.224.59 2.23.722 3.301.722 2.34 0 3.586-1.006 3.586-3.411v-.83c-.678 1.093-1.793 1.683-3.192 1.683-2.82 0-4.875-2.34-4.875-5.86 0-3.082 1.486-5.859 5.05-5.859 1.29 0 2.382.525 3.126 1.487l.262-1.224h1.488zM203.589 39.127h1.859V27.934h-1.859v11.193zm0-13.38h1.859v-2.011h-1.859v2.012zM211.503 37.75c.721 0 1.464-.153 2.208-.569l-.24 1.662c-.656.372-1.465.547-2.122.547-2.12 0-3.563-1.05-3.563-3.345V24.917h1.858v3.017h4.154l-.24 1.64h-3.914v6.23c0 1.443.831 1.946 1.859 1.946M221.646 36.33v-2.755l-1.837.24c-2.251.284-3.323.874-3.323 2.252 0 1.07.83 1.749 1.99 1.749 1.486 0 2.58-.547 3.17-1.487zm.284 2.797a13.363 13.363 0 01-.22-1.552c-.786 1.203-1.945 1.815-3.366 1.815-2.23 0-3.716-1.399-3.716-3.258 0-2.164 1.552-3.235 4.613-3.694l2.405-.329v-.852c0-1.247-.547-1.99-2.755-1.99-1.312 0-2.361.24-3.563.744l.24-1.64c1.049-.48 2.274-.7 3.52-.7 3.06 0 4.416 1.268 4.416 3.433v5.444c0 .896.109 1.727.24 2.58h-1.814zM225.951 39.127h1.859V23.736h-1.859z"></path>
    </g>
</svg>